# xmcd
#
# Track frame offsets:
#	150
#	8437
#	29840
#	48452
#	71277
#	89187
#	108007
#	131862
#	148412
#	171995
#	191317
#	214255
#	233477
#	253685
#	273925
#
# Disc length: 3928 seconds
#
# Revision: 1
# Processed by: cddbd v1.5.1PL0 Copyright (c) Steve Scherf et al.
# Submitted via: CDex 1.50Beta5
#
DISCID=da0f560f
DTITLE=V6 - ∽INFINITY〜LOVE&LIFE〜
DYEAR=1900
DGENRE=
TTITLE0=Intoroduction∽INFINITY
TTITLE1=COSMIC RESCUE
TTITLE2=Darling
TTITLE3=特別な夜は平凡な夜の次に来る
TTITLE4=Gravity Graffiti
TTITLE5=キミヘノコトバ
TTITLE6=強くなれ
TTITLE7=I'm yours
TTITLE8=ラブ・シエスタ
TTITLE9=やっぱ、シンプル。
TTITLE10=君に会えない日も
TTITLE11=UNLIMITED
TTITLE12=メジルシの記憶
TTITLE13=Hard Luck Hero
TTITLE14=ドギ☆マギWonderland
EXTD=
EXTT0=
EXTT1=
EXTT2=
EXTT3=
EXTT4=
EXTT5=
EXTT6=
EXTT7=
EXTT8=
EXTT9=
EXTT10=
EXTT11=
EXTT12=
EXTT13=
EXTT14=
PLAYORDER=
